<mxfile host="Electron" modified="2024-05-01T22:10:09.249Z" agent="Mozilla/5.0 (X11; Linux x86_64) AppleWebKit/537.36 (KHTML, like Gecko) draw.io/24.1.0 Chrome/120.0.6099.109 Electron/28.1.0 Safari/537.36" etag="yUy6M2PtSYYzxcwWKbd3" version="24.1.0" type="device" pages="2">
  <diagram name="Register Map" id="v1YM9SdcpMKkmSQmWh6b">
    <mxGraphModel dx="1372" dy="1943" grid="1" gridSize="10" guides="1" tooltips="1" connect="1" arrows="1" fold="1" page="1" pageScale="1" pageWidth="850" pageHeight="1100" math="0" shadow="0">
      <root>
        <mxCell id="0" />
        <mxCell id="1" parent="0" />
        <mxCell id="Ihrhc7VY8HwhMpw8fRXH-2" value="RFU" style="rounded=0;whiteSpace=wrap;html=1;" vertex="1" parent="1">
          <mxGeometry x="40" y="-904" width="60" height="30" as="geometry" />
        </mxCell>
        <mxCell id="Ihrhc7VY8HwhMpw8fRXH-3" value="&lt;span style=&quot;color: rgb(0, 0, 0); font-family: Helvetica; font-size: 12px; font-style: normal; font-variant-ligatures: normal; font-variant-caps: normal; font-weight: 400; letter-spacing: normal; orphans: 2; text-align: center; text-indent: 0px; text-transform: none; widows: 2; word-spacing: 0px; -webkit-text-stroke-width: 0px; background-color: rgb(251, 251, 251); text-decoration-thickness: initial; text-decoration-style: initial; text-decoration-color: initial; float: none; display: inline !important;&quot;&gt;-&lt;/span&gt;" style="rounded=0;whiteSpace=wrap;html=1;" vertex="1" parent="1">
          <mxGeometry x="40" y="-874" width="60" height="30" as="geometry" />
        </mxCell>
        <mxCell id="Ihrhc7VY8HwhMpw8fRXH-4" value="31" style="rounded=0;whiteSpace=wrap;html=1;fillColor=#f5f5f5;fontColor=#333333;strokeColor=#666666;" vertex="1" parent="1">
          <mxGeometry x="40" y="-924" width="60" height="20" as="geometry" />
        </mxCell>
        <mxCell id="Ihrhc7VY8HwhMpw8fRXH-5" value="RFU" style="rounded=0;whiteSpace=wrap;html=1;" vertex="1" parent="1">
          <mxGeometry x="100" y="-904" width="60" height="30" as="geometry" />
        </mxCell>
        <mxCell id="Ihrhc7VY8HwhMpw8fRXH-6" value="-" style="rounded=0;whiteSpace=wrap;html=1;" vertex="1" parent="1">
          <mxGeometry x="100" y="-874" width="60" height="30" as="geometry" />
        </mxCell>
        <mxCell id="Ihrhc7VY8HwhMpw8fRXH-7" value="30" style="rounded=0;whiteSpace=wrap;html=1;fillColor=#f5f5f5;fontColor=#333333;strokeColor=#666666;" vertex="1" parent="1">
          <mxGeometry x="100" y="-924" width="60" height="20" as="geometry" />
        </mxCell>
        <mxCell id="Ihrhc7VY8HwhMpw8fRXH-8" value="RFU" style="rounded=0;whiteSpace=wrap;html=1;" vertex="1" parent="1">
          <mxGeometry x="160" y="-904" width="60" height="30" as="geometry" />
        </mxCell>
        <mxCell id="Ihrhc7VY8HwhMpw8fRXH-9" value="-" style="rounded=0;whiteSpace=wrap;html=1;" vertex="1" parent="1">
          <mxGeometry x="160" y="-874" width="60" height="30" as="geometry" />
        </mxCell>
        <mxCell id="Ihrhc7VY8HwhMpw8fRXH-10" value="29" style="rounded=0;whiteSpace=wrap;html=1;fillColor=#f5f5f5;fontColor=#333333;strokeColor=#666666;" vertex="1" parent="1">
          <mxGeometry x="160" y="-924" width="60" height="20" as="geometry" />
        </mxCell>
        <mxCell id="Ihrhc7VY8HwhMpw8fRXH-11" value="RFU" style="rounded=0;whiteSpace=wrap;html=1;" vertex="1" parent="1">
          <mxGeometry x="220" y="-904" width="60" height="30" as="geometry" />
        </mxCell>
        <mxCell id="Ihrhc7VY8HwhMpw8fRXH-12" value="-" style="rounded=0;whiteSpace=wrap;html=1;" vertex="1" parent="1">
          <mxGeometry x="220" y="-874" width="60" height="30" as="geometry" />
        </mxCell>
        <mxCell id="Ihrhc7VY8HwhMpw8fRXH-13" value="28" style="rounded=0;whiteSpace=wrap;html=1;fillColor=#f5f5f5;fontColor=#333333;strokeColor=#666666;" vertex="1" parent="1">
          <mxGeometry x="220" y="-924" width="60" height="20" as="geometry" />
        </mxCell>
        <mxCell id="Ihrhc7VY8HwhMpw8fRXH-14" value="RFU" style="rounded=0;whiteSpace=wrap;html=1;" vertex="1" parent="1">
          <mxGeometry x="280" y="-904" width="60" height="30" as="geometry" />
        </mxCell>
        <mxCell id="Ihrhc7VY8HwhMpw8fRXH-15" value="-" style="rounded=0;whiteSpace=wrap;html=1;" vertex="1" parent="1">
          <mxGeometry x="280" y="-874" width="60" height="30" as="geometry" />
        </mxCell>
        <mxCell id="Ihrhc7VY8HwhMpw8fRXH-16" value="27" style="rounded=0;whiteSpace=wrap;html=1;fillColor=#f5f5f5;fontColor=#333333;strokeColor=#666666;" vertex="1" parent="1">
          <mxGeometry x="280" y="-924" width="60" height="20" as="geometry" />
        </mxCell>
        <mxCell id="Ihrhc7VY8HwhMpw8fRXH-17" value="RFU" style="rounded=0;whiteSpace=wrap;html=1;" vertex="1" parent="1">
          <mxGeometry x="340" y="-904" width="60" height="30" as="geometry" />
        </mxCell>
        <mxCell id="Ihrhc7VY8HwhMpw8fRXH-18" value="&lt;span style=&quot;color: rgb(0, 0, 0); font-family: Helvetica; font-size: 12px; font-style: normal; font-variant-ligatures: normal; font-variant-caps: normal; font-weight: 400; letter-spacing: normal; orphans: 2; text-align: center; text-indent: 0px; text-transform: none; widows: 2; word-spacing: 0px; -webkit-text-stroke-width: 0px; background-color: rgb(251, 251, 251); text-decoration-thickness: initial; text-decoration-style: initial; text-decoration-color: initial; float: none; display: inline !important;&quot;&gt;-&lt;/span&gt;" style="rounded=0;whiteSpace=wrap;html=1;" vertex="1" parent="1">
          <mxGeometry x="340" y="-874" width="60" height="30" as="geometry" />
        </mxCell>
        <mxCell id="Ihrhc7VY8HwhMpw8fRXH-19" value="26" style="rounded=0;whiteSpace=wrap;html=1;fillColor=#f5f5f5;fontColor=#333333;strokeColor=#666666;" vertex="1" parent="1">
          <mxGeometry x="340" y="-924" width="60" height="20" as="geometry" />
        </mxCell>
        <mxCell id="Ihrhc7VY8HwhMpw8fRXH-20" value="&lt;span style=&quot;color: rgb(0, 0, 0); font-family: Helvetica; font-size: 12px; font-style: normal; font-variant-ligatures: normal; font-variant-caps: normal; font-weight: 400; letter-spacing: normal; orphans: 2; text-align: center; text-indent: 0px; text-transform: none; widows: 2; word-spacing: 0px; -webkit-text-stroke-width: 0px; background-color: rgb(251, 251, 251); text-decoration-thickness: initial; text-decoration-style: initial; text-decoration-color: initial; float: none; display: inline !important;&quot;&gt;RFU&lt;/span&gt;" style="rounded=0;whiteSpace=wrap;html=1;" vertex="1" parent="1">
          <mxGeometry x="400" y="-904" width="60" height="30" as="geometry" />
        </mxCell>
        <mxCell id="Ihrhc7VY8HwhMpw8fRXH-21" value="&lt;span style=&quot;color: rgb(0, 0, 0); font-family: Helvetica; font-size: 12px; font-style: normal; font-variant-ligatures: normal; font-variant-caps: normal; font-weight: 400; letter-spacing: normal; orphans: 2; text-align: center; text-indent: 0px; text-transform: none; widows: 2; word-spacing: 0px; -webkit-text-stroke-width: 0px; background-color: rgb(251, 251, 251); text-decoration-thickness: initial; text-decoration-style: initial; text-decoration-color: initial; float: none; display: inline !important;&quot;&gt;-&lt;/span&gt;" style="rounded=0;whiteSpace=wrap;html=1;" vertex="1" parent="1">
          <mxGeometry x="400" y="-874" width="60" height="30" as="geometry" />
        </mxCell>
        <mxCell id="Ihrhc7VY8HwhMpw8fRXH-22" value="25" style="rounded=0;whiteSpace=wrap;html=1;fillColor=#f5f5f5;fontColor=#333333;strokeColor=#666666;" vertex="1" parent="1">
          <mxGeometry x="400" y="-924" width="60" height="20" as="geometry" />
        </mxCell>
        <mxCell id="Ihrhc7VY8HwhMpw8fRXH-23" value="RFU" style="rounded=0;whiteSpace=wrap;html=1;" vertex="1" parent="1">
          <mxGeometry x="460" y="-904" width="60" height="30" as="geometry" />
        </mxCell>
        <mxCell id="Ihrhc7VY8HwhMpw8fRXH-24" value="&lt;span style=&quot;color: rgb(0, 0, 0); font-family: Helvetica; font-size: 12px; font-style: normal; font-variant-ligatures: normal; font-variant-caps: normal; font-weight: 400; letter-spacing: normal; orphans: 2; text-align: center; text-indent: 0px; text-transform: none; widows: 2; word-spacing: 0px; -webkit-text-stroke-width: 0px; background-color: rgb(251, 251, 251); text-decoration-thickness: initial; text-decoration-style: initial; text-decoration-color: initial; float: none; display: inline !important;&quot;&gt;-&lt;/span&gt;" style="rounded=0;whiteSpace=wrap;html=1;" vertex="1" parent="1">
          <mxGeometry x="460" y="-874" width="60" height="30" as="geometry" />
        </mxCell>
        <mxCell id="Ihrhc7VY8HwhMpw8fRXH-25" value="24" style="rounded=0;whiteSpace=wrap;html=1;fillColor=#f5f5f5;fontColor=#333333;strokeColor=#666666;" vertex="1" parent="1">
          <mxGeometry x="460" y="-924" width="60" height="20" as="geometry" />
        </mxCell>
        <mxCell id="Ihrhc7VY8HwhMpw8fRXH-26" value="RFU" style="rounded=0;whiteSpace=wrap;html=1;" vertex="1" parent="1">
          <mxGeometry x="520" y="-904" width="60" height="30" as="geometry" />
        </mxCell>
        <mxCell id="Ihrhc7VY8HwhMpw8fRXH-27" value="&lt;span style=&quot;color: rgb(0, 0, 0); font-family: Helvetica; font-size: 12px; font-style: normal; font-variant-ligatures: normal; font-variant-caps: normal; font-weight: 400; letter-spacing: normal; orphans: 2; text-align: center; text-indent: 0px; text-transform: none; widows: 2; word-spacing: 0px; -webkit-text-stroke-width: 0px; background-color: rgb(251, 251, 251); text-decoration-thickness: initial; text-decoration-style: initial; text-decoration-color: initial; float: none; display: inline !important;&quot;&gt;-&lt;/span&gt;" style="rounded=0;whiteSpace=wrap;html=1;" vertex="1" parent="1">
          <mxGeometry x="520" y="-874" width="60" height="30" as="geometry" />
        </mxCell>
        <mxCell id="Ihrhc7VY8HwhMpw8fRXH-28" value="23" style="rounded=0;whiteSpace=wrap;html=1;fillColor=#f5f5f5;fontColor=#333333;strokeColor=#666666;" vertex="1" parent="1">
          <mxGeometry x="520" y="-924" width="60" height="20" as="geometry" />
        </mxCell>
        <mxCell id="Ihrhc7VY8HwhMpw8fRXH-29" value="RFU" style="rounded=0;whiteSpace=wrap;html=1;" vertex="1" parent="1">
          <mxGeometry x="580" y="-904" width="60" height="30" as="geometry" />
        </mxCell>
        <mxCell id="Ihrhc7VY8HwhMpw8fRXH-30" value="&lt;span style=&quot;color: rgb(0, 0, 0); font-family: Helvetica; font-size: 12px; font-style: normal; font-variant-ligatures: normal; font-variant-caps: normal; font-weight: 400; letter-spacing: normal; orphans: 2; text-align: center; text-indent: 0px; text-transform: none; widows: 2; word-spacing: 0px; -webkit-text-stroke-width: 0px; background-color: rgb(251, 251, 251); text-decoration-thickness: initial; text-decoration-style: initial; text-decoration-color: initial; float: none; display: inline !important;&quot;&gt;-&lt;/span&gt;" style="rounded=0;whiteSpace=wrap;html=1;" vertex="1" parent="1">
          <mxGeometry x="580" y="-874" width="60" height="30" as="geometry" />
        </mxCell>
        <mxCell id="Ihrhc7VY8HwhMpw8fRXH-31" value="22" style="rounded=0;whiteSpace=wrap;html=1;fillColor=#f5f5f5;fontColor=#333333;strokeColor=#666666;" vertex="1" parent="1">
          <mxGeometry x="580" y="-924" width="60" height="20" as="geometry" />
        </mxCell>
        <mxCell id="Ihrhc7VY8HwhMpw8fRXH-32" value="RFU" style="rounded=0;whiteSpace=wrap;html=1;" vertex="1" parent="1">
          <mxGeometry x="640" y="-904" width="60" height="30" as="geometry" />
        </mxCell>
        <mxCell id="Ihrhc7VY8HwhMpw8fRXH-33" value="&lt;span style=&quot;color: rgb(0, 0, 0); font-family: Helvetica; font-size: 12px; font-style: normal; font-variant-ligatures: normal; font-variant-caps: normal; font-weight: 400; letter-spacing: normal; orphans: 2; text-align: center; text-indent: 0px; text-transform: none; widows: 2; word-spacing: 0px; -webkit-text-stroke-width: 0px; background-color: rgb(251, 251, 251); text-decoration-thickness: initial; text-decoration-style: initial; text-decoration-color: initial; float: none; display: inline !important;&quot;&gt;-&lt;/span&gt;" style="rounded=0;whiteSpace=wrap;html=1;" vertex="1" parent="1">
          <mxGeometry x="640" y="-874" width="60" height="30" as="geometry" />
        </mxCell>
        <mxCell id="Ihrhc7VY8HwhMpw8fRXH-34" value="21" style="rounded=0;whiteSpace=wrap;html=1;fillColor=#f5f5f5;fontColor=#333333;strokeColor=#666666;" vertex="1" parent="1">
          <mxGeometry x="640" y="-924" width="60" height="20" as="geometry" />
        </mxCell>
        <mxCell id="Ihrhc7VY8HwhMpw8fRXH-35" value="RFU" style="rounded=0;whiteSpace=wrap;html=1;" vertex="1" parent="1">
          <mxGeometry x="700" y="-904" width="60" height="30" as="geometry" />
        </mxCell>
        <mxCell id="Ihrhc7VY8HwhMpw8fRXH-36" value="&lt;span style=&quot;color: rgb(0, 0, 0); font-family: Helvetica; font-size: 12px; font-style: normal; font-variant-ligatures: normal; font-variant-caps: normal; font-weight: 400; letter-spacing: normal; orphans: 2; text-align: center; text-indent: 0px; text-transform: none; widows: 2; word-spacing: 0px; -webkit-text-stroke-width: 0px; background-color: rgb(251, 251, 251); text-decoration-thickness: initial; text-decoration-style: initial; text-decoration-color: initial; float: none; display: inline !important;&quot;&gt;-&lt;/span&gt;" style="rounded=0;whiteSpace=wrap;html=1;" vertex="1" parent="1">
          <mxGeometry x="700" y="-874" width="60" height="30" as="geometry" />
        </mxCell>
        <mxCell id="Ihrhc7VY8HwhMpw8fRXH-37" value="20" style="rounded=0;whiteSpace=wrap;html=1;fillColor=#f5f5f5;fontColor=#333333;strokeColor=#666666;" vertex="1" parent="1">
          <mxGeometry x="700" y="-924" width="60" height="20" as="geometry" />
        </mxCell>
        <mxCell id="Ihrhc7VY8HwhMpw8fRXH-38" value="RFU" style="rounded=0;whiteSpace=wrap;html=1;" vertex="1" parent="1">
          <mxGeometry x="760" y="-904" width="60" height="30" as="geometry" />
        </mxCell>
        <mxCell id="Ihrhc7VY8HwhMpw8fRXH-39" value="&lt;span style=&quot;color: rgb(0, 0, 0); font-family: Helvetica; font-size: 12px; font-style: normal; font-variant-ligatures: normal; font-variant-caps: normal; font-weight: 400; letter-spacing: normal; orphans: 2; text-align: center; text-indent: 0px; text-transform: none; widows: 2; word-spacing: 0px; -webkit-text-stroke-width: 0px; background-color: rgb(251, 251, 251); text-decoration-thickness: initial; text-decoration-style: initial; text-decoration-color: initial; float: none; display: inline !important;&quot;&gt;-&lt;/span&gt;" style="rounded=0;whiteSpace=wrap;html=1;" vertex="1" parent="1">
          <mxGeometry x="760" y="-874" width="60" height="30" as="geometry" />
        </mxCell>
        <mxCell id="Ihrhc7VY8HwhMpw8fRXH-40" value="19" style="rounded=0;whiteSpace=wrap;html=1;fillColor=#f5f5f5;fontColor=#333333;strokeColor=#666666;" vertex="1" parent="1">
          <mxGeometry x="760" y="-924" width="60" height="20" as="geometry" />
        </mxCell>
        <mxCell id="Ihrhc7VY8HwhMpw8fRXH-41" value="RFU" style="rounded=0;whiteSpace=wrap;html=1;" vertex="1" parent="1">
          <mxGeometry x="820" y="-904" width="60" height="30" as="geometry" />
        </mxCell>
        <mxCell id="Ihrhc7VY8HwhMpw8fRXH-42" value="&lt;span style=&quot;color: rgb(0, 0, 0); font-family: Helvetica; font-size: 12px; font-style: normal; font-variant-ligatures: normal; font-variant-caps: normal; font-weight: 400; letter-spacing: normal; orphans: 2; text-align: center; text-indent: 0px; text-transform: none; widows: 2; word-spacing: 0px; -webkit-text-stroke-width: 0px; background-color: rgb(251, 251, 251); text-decoration-thickness: initial; text-decoration-style: initial; text-decoration-color: initial; float: none; display: inline !important;&quot;&gt;-&lt;/span&gt;" style="rounded=0;whiteSpace=wrap;html=1;" vertex="1" parent="1">
          <mxGeometry x="820" y="-874" width="60" height="30" as="geometry" />
        </mxCell>
        <mxCell id="Ihrhc7VY8HwhMpw8fRXH-43" value="18" style="rounded=0;whiteSpace=wrap;html=1;fillColor=#f5f5f5;fontColor=#333333;strokeColor=#666666;" vertex="1" parent="1">
          <mxGeometry x="820" y="-924" width="60" height="20" as="geometry" />
        </mxCell>
        <mxCell id="Ihrhc7VY8HwhMpw8fRXH-44" value="RFU" style="rounded=0;whiteSpace=wrap;html=1;" vertex="1" parent="1">
          <mxGeometry x="880" y="-904" width="60" height="30" as="geometry" />
        </mxCell>
        <mxCell id="Ihrhc7VY8HwhMpw8fRXH-45" value="&lt;span style=&quot;color: rgb(0, 0, 0); font-family: Helvetica; font-size: 12px; font-style: normal; font-variant-ligatures: normal; font-variant-caps: normal; font-weight: 400; letter-spacing: normal; orphans: 2; text-align: center; text-indent: 0px; text-transform: none; widows: 2; word-spacing: 0px; -webkit-text-stroke-width: 0px; background-color: rgb(251, 251, 251); text-decoration-thickness: initial; text-decoration-style: initial; text-decoration-color: initial; float: none; display: inline !important;&quot;&gt;-&lt;/span&gt;" style="rounded=0;whiteSpace=wrap;html=1;" vertex="1" parent="1">
          <mxGeometry x="880" y="-874" width="60" height="30" as="geometry" />
        </mxCell>
        <mxCell id="Ihrhc7VY8HwhMpw8fRXH-46" value="17" style="rounded=0;whiteSpace=wrap;html=1;fillColor=#f5f5f5;fontColor=#333333;strokeColor=#666666;" vertex="1" parent="1">
          <mxGeometry x="880" y="-924" width="60" height="20" as="geometry" />
        </mxCell>
        <mxCell id="Ihrhc7VY8HwhMpw8fRXH-47" value="RFU" style="rounded=0;whiteSpace=wrap;html=1;" vertex="1" parent="1">
          <mxGeometry x="940" y="-904" width="60" height="30" as="geometry" />
        </mxCell>
        <mxCell id="Ihrhc7VY8HwhMpw8fRXH-48" value="&lt;span style=&quot;color: rgb(0, 0, 0); font-family: Helvetica; font-size: 12px; font-style: normal; font-variant-ligatures: normal; font-variant-caps: normal; font-weight: 400; letter-spacing: normal; orphans: 2; text-align: center; text-indent: 0px; text-transform: none; widows: 2; word-spacing: 0px; -webkit-text-stroke-width: 0px; background-color: rgb(251, 251, 251); text-decoration-thickness: initial; text-decoration-style: initial; text-decoration-color: initial; float: none; display: inline !important;&quot;&gt;-&lt;/span&gt;" style="rounded=0;whiteSpace=wrap;html=1;" vertex="1" parent="1">
          <mxGeometry x="940" y="-874" width="60" height="30" as="geometry" />
        </mxCell>
        <mxCell id="Ihrhc7VY8HwhMpw8fRXH-49" value="16" style="rounded=0;whiteSpace=wrap;html=1;fillColor=#f5f5f5;fontColor=#333333;strokeColor=#666666;" vertex="1" parent="1">
          <mxGeometry x="940" y="-924" width="60" height="20" as="geometry" />
        </mxCell>
        <mxCell id="Ihrhc7VY8HwhMpw8fRXH-50" value="RFU" style="rounded=0;whiteSpace=wrap;html=1;" vertex="1" parent="1">
          <mxGeometry x="40" y="-810" width="60" height="30" as="geometry" />
        </mxCell>
        <mxCell id="Ihrhc7VY8HwhMpw8fRXH-51" value="-" style="rounded=0;whiteSpace=wrap;html=1;" vertex="1" parent="1">
          <mxGeometry x="40" y="-780" width="60" height="30" as="geometry" />
        </mxCell>
        <mxCell id="Ihrhc7VY8HwhMpw8fRXH-52" value="15" style="rounded=0;whiteSpace=wrap;html=1;fillColor=#f5f5f5;fontColor=#333333;strokeColor=#666666;" vertex="1" parent="1">
          <mxGeometry x="40" y="-830" width="60" height="20" as="geometry" />
        </mxCell>
        <mxCell id="Ihrhc7VY8HwhMpw8fRXH-53" value="RFU" style="rounded=0;whiteSpace=wrap;html=1;" vertex="1" parent="1">
          <mxGeometry x="100" y="-810" width="60" height="30" as="geometry" />
        </mxCell>
        <mxCell id="Ihrhc7VY8HwhMpw8fRXH-54" value="-" style="rounded=0;whiteSpace=wrap;html=1;" vertex="1" parent="1">
          <mxGeometry x="100" y="-780" width="60" height="30" as="geometry" />
        </mxCell>
        <mxCell id="Ihrhc7VY8HwhMpw8fRXH-55" value="14" style="rounded=0;whiteSpace=wrap;html=1;fillColor=#f5f5f5;fontColor=#333333;strokeColor=#666666;" vertex="1" parent="1">
          <mxGeometry x="100" y="-830" width="60" height="20" as="geometry" />
        </mxCell>
        <mxCell id="Ihrhc7VY8HwhMpw8fRXH-56" value="RFU" style="rounded=0;whiteSpace=wrap;html=1;" vertex="1" parent="1">
          <mxGeometry x="160" y="-810" width="60" height="30" as="geometry" />
        </mxCell>
        <mxCell id="Ihrhc7VY8HwhMpw8fRXH-57" value="-" style="rounded=0;whiteSpace=wrap;html=1;" vertex="1" parent="1">
          <mxGeometry x="160" y="-780" width="60" height="30" as="geometry" />
        </mxCell>
        <mxCell id="Ihrhc7VY8HwhMpw8fRXH-58" value="13" style="rounded=0;whiteSpace=wrap;html=1;fillColor=#f5f5f5;fontColor=#333333;strokeColor=#666666;" vertex="1" parent="1">
          <mxGeometry x="160" y="-830" width="60" height="20" as="geometry" />
        </mxCell>
        <mxCell id="Ihrhc7VY8HwhMpw8fRXH-59" value="RFU" style="rounded=0;whiteSpace=wrap;html=1;" vertex="1" parent="1">
          <mxGeometry x="220" y="-810" width="60" height="30" as="geometry" />
        </mxCell>
        <mxCell id="Ihrhc7VY8HwhMpw8fRXH-60" value="-" style="rounded=0;whiteSpace=wrap;html=1;" vertex="1" parent="1">
          <mxGeometry x="220" y="-780" width="60" height="30" as="geometry" />
        </mxCell>
        <mxCell id="Ihrhc7VY8HwhMpw8fRXH-61" value="12" style="rounded=0;whiteSpace=wrap;html=1;fillColor=#f5f5f5;fontColor=#333333;strokeColor=#666666;" vertex="1" parent="1">
          <mxGeometry x="220" y="-830" width="60" height="20" as="geometry" />
        </mxCell>
        <mxCell id="Ihrhc7VY8HwhMpw8fRXH-62" value="RFU" style="rounded=0;whiteSpace=wrap;html=1;" vertex="1" parent="1">
          <mxGeometry x="280" y="-810" width="60" height="30" as="geometry" />
        </mxCell>
        <mxCell id="Ihrhc7VY8HwhMpw8fRXH-63" value="-" style="rounded=0;whiteSpace=wrap;html=1;" vertex="1" parent="1">
          <mxGeometry x="280" y="-780" width="60" height="30" as="geometry" />
        </mxCell>
        <mxCell id="Ihrhc7VY8HwhMpw8fRXH-64" value="11" style="rounded=0;whiteSpace=wrap;html=1;fillColor=#f5f5f5;fontColor=#333333;strokeColor=#666666;" vertex="1" parent="1">
          <mxGeometry x="280" y="-830" width="60" height="20" as="geometry" />
        </mxCell>
        <mxCell id="Ihrhc7VY8HwhMpw8fRXH-65" value="RFU" style="rounded=0;whiteSpace=wrap;html=1;" vertex="1" parent="1">
          <mxGeometry x="340" y="-810" width="60" height="30" as="geometry" />
        </mxCell>
        <mxCell id="Ihrhc7VY8HwhMpw8fRXH-66" value="-" style="rounded=0;whiteSpace=wrap;html=1;" vertex="1" parent="1">
          <mxGeometry x="340" y="-780" width="60" height="30" as="geometry" />
        </mxCell>
        <mxCell id="Ihrhc7VY8HwhMpw8fRXH-67" value="10" style="rounded=0;whiteSpace=wrap;html=1;fillColor=#f5f5f5;fontColor=#333333;strokeColor=#666666;" vertex="1" parent="1">
          <mxGeometry x="340" y="-830" width="60" height="20" as="geometry" />
        </mxCell>
        <mxCell id="Ihrhc7VY8HwhMpw8fRXH-68" value="RFU" style="rounded=0;whiteSpace=wrap;html=1;" vertex="1" parent="1">
          <mxGeometry x="400" y="-810" width="60" height="30" as="geometry" />
        </mxCell>
        <mxCell id="Ihrhc7VY8HwhMpw8fRXH-69" value="-" style="rounded=0;whiteSpace=wrap;html=1;" vertex="1" parent="1">
          <mxGeometry x="400" y="-780" width="60" height="30" as="geometry" />
        </mxCell>
        <mxCell id="Ihrhc7VY8HwhMpw8fRXH-70" value="9" style="rounded=0;whiteSpace=wrap;html=1;fillColor=#f5f5f5;fontColor=#333333;strokeColor=#666666;" vertex="1" parent="1">
          <mxGeometry x="400" y="-830" width="60" height="20" as="geometry" />
        </mxCell>
        <mxCell id="Ihrhc7VY8HwhMpw8fRXH-71" value="RFU" style="rounded=0;whiteSpace=wrap;html=1;" vertex="1" parent="1">
          <mxGeometry x="460" y="-810" width="60" height="30" as="geometry" />
        </mxCell>
        <mxCell id="Ihrhc7VY8HwhMpw8fRXH-72" value="-" style="rounded=0;whiteSpace=wrap;html=1;" vertex="1" parent="1">
          <mxGeometry x="460" y="-780" width="60" height="30" as="geometry" />
        </mxCell>
        <mxCell id="Ihrhc7VY8HwhMpw8fRXH-73" value="8" style="rounded=0;whiteSpace=wrap;html=1;fillColor=#f5f5f5;fontColor=#333333;strokeColor=#666666;" vertex="1" parent="1">
          <mxGeometry x="460" y="-830" width="60" height="20" as="geometry" />
        </mxCell>
        <mxCell id="Ihrhc7VY8HwhMpw8fRXH-74" value="RFU" style="rounded=0;whiteSpace=wrap;html=1;" vertex="1" parent="1">
          <mxGeometry x="520" y="-810" width="60" height="30" as="geometry" />
        </mxCell>
        <mxCell id="Ihrhc7VY8HwhMpw8fRXH-75" value="-" style="rounded=0;whiteSpace=wrap;html=1;" vertex="1" parent="1">
          <mxGeometry x="520" y="-780" width="60" height="30" as="geometry" />
        </mxCell>
        <mxCell id="Ihrhc7VY8HwhMpw8fRXH-76" value="7" style="rounded=0;whiteSpace=wrap;html=1;fillColor=#f5f5f5;fontColor=#333333;strokeColor=#666666;" vertex="1" parent="1">
          <mxGeometry x="520" y="-830" width="60" height="20" as="geometry" />
        </mxCell>
        <mxCell id="Ihrhc7VY8HwhMpw8fRXH-77" value="6" style="rounded=0;whiteSpace=wrap;html=1;fillColor=#f5f5f5;fontColor=#333333;strokeColor=#666666;" vertex="1" parent="1">
          <mxGeometry x="580" y="-830" width="60" height="20" as="geometry" />
        </mxCell>
        <mxCell id="Ihrhc7VY8HwhMpw8fRXH-78" value="5" style="rounded=0;whiteSpace=wrap;html=1;fillColor=#f5f5f5;fontColor=#333333;strokeColor=#666666;" vertex="1" parent="1">
          <mxGeometry x="640" y="-830" width="60" height="20" as="geometry" />
        </mxCell>
        <mxCell id="Ihrhc7VY8HwhMpw8fRXH-79" value="4" style="rounded=0;whiteSpace=wrap;html=1;fillColor=#f5f5f5;fontColor=#333333;strokeColor=#666666;" vertex="1" parent="1">
          <mxGeometry x="700" y="-830" width="60" height="20" as="geometry" />
        </mxCell>
        <mxCell id="Ihrhc7VY8HwhMpw8fRXH-80" value="3" style="rounded=0;whiteSpace=wrap;html=1;fillColor=#f5f5f5;fontColor=#333333;strokeColor=#666666;" vertex="1" parent="1">
          <mxGeometry x="760" y="-830" width="60" height="20" as="geometry" />
        </mxCell>
        <mxCell id="Ihrhc7VY8HwhMpw8fRXH-81" value="2" style="rounded=0;whiteSpace=wrap;html=1;fillColor=#f5f5f5;fontColor=#333333;strokeColor=#666666;" vertex="1" parent="1">
          <mxGeometry x="820" y="-830" width="60" height="20" as="geometry" />
        </mxCell>
        <mxCell id="Ihrhc7VY8HwhMpw8fRXH-82" value="1" style="rounded=0;whiteSpace=wrap;html=1;fillColor=#f5f5f5;fontColor=#333333;strokeColor=#666666;" vertex="1" parent="1">
          <mxGeometry x="880" y="-830" width="60" height="20" as="geometry" />
        </mxCell>
        <mxCell id="Ihrhc7VY8HwhMpw8fRXH-83" value="&lt;b&gt;ENABLE&lt;/b&gt;" style="rounded=0;whiteSpace=wrap;html=1;" vertex="1" parent="1">
          <mxGeometry x="940" y="-810" width="60" height="30" as="geometry" />
        </mxCell>
        <mxCell id="Ihrhc7VY8HwhMpw8fRXH-84" value="&lt;b&gt;RW&lt;/b&gt;" style="rounded=0;whiteSpace=wrap;html=1;" vertex="1" parent="1">
          <mxGeometry x="940" y="-780" width="60" height="30" as="geometry" />
        </mxCell>
        <mxCell id="Ihrhc7VY8HwhMpw8fRXH-85" value="0" style="rounded=0;whiteSpace=wrap;html=1;fillColor=#f5f5f5;fontColor=#333333;strokeColor=#666666;" vertex="1" parent="1">
          <mxGeometry x="940" y="-830" width="60" height="20" as="geometry" />
        </mxCell>
        <mxCell id="Ihrhc7VY8HwhMpw8fRXH-86" value="&lt;b&gt;PS2 : 0x00&lt;/b&gt;" style="text;html=1;align=left;verticalAlign=middle;resizable=0;points=[];autosize=1;strokeColor=none;fillColor=none;" vertex="1" parent="1">
          <mxGeometry x="40" y="-960" width="80" height="30" as="geometry" />
        </mxCell>
        <mxCell id="Ihrhc7VY8HwhMpw8fRXH-87" value="&lt;b&gt;Bit 0 : ENABLE&amp;nbsp;&lt;/b&gt;&lt;br&gt;&lt;span style=&quot;font-weight: bold; white-space: pre;&quot;&gt;&#x9;&lt;/span&gt;0 -&amp;gt; PS2 is disabled&lt;br&gt;&lt;div&gt;&lt;span style=&quot;white-space: pre;&quot;&gt;&#x9;&lt;/span&gt;1 -&amp;gt; PS2&amp;nbsp;is enabled&lt;/div&gt;" style="text;html=1;align=left;verticalAlign=middle;resizable=0;points=[];autosize=1;strokeColor=none;fillColor=none;rotation=0;" vertex="1" parent="1">
          <mxGeometry x="40" y="-730" width="160" height="60" as="geometry" />
        </mxCell>
        <mxCell id="Ihrhc7VY8HwhMpw8fRXH-88" value="-" style="rounded=0;whiteSpace=wrap;html=1;" vertex="1" parent="1">
          <mxGeometry x="880" y="-780" width="60" height="30" as="geometry" />
        </mxCell>
        <mxCell id="Ihrhc7VY8HwhMpw8fRXH-89" value="&lt;span style=&quot;font-weight: 400;&quot;&gt;RFU&lt;/span&gt;" style="rounded=0;whiteSpace=wrap;html=1;fontStyle=1" vertex="1" parent="1">
          <mxGeometry x="880" y="-810" width="60" height="30" as="geometry" />
        </mxCell>
        <mxCell id="Ihrhc7VY8HwhMpw8fRXH-90" value="RFU" style="rounded=0;whiteSpace=wrap;html=1;" vertex="1" parent="1">
          <mxGeometry x="820" y="-810" width="60" height="30" as="geometry" />
        </mxCell>
        <mxCell id="Ihrhc7VY8HwhMpw8fRXH-91" value="-" style="rounded=0;whiteSpace=wrap;html=1;" vertex="1" parent="1">
          <mxGeometry x="820" y="-780" width="60" height="30" as="geometry" />
        </mxCell>
        <mxCell id="Ihrhc7VY8HwhMpw8fRXH-92" value="RFU" style="rounded=0;whiteSpace=wrap;html=1;" vertex="1" parent="1">
          <mxGeometry x="760" y="-810" width="60" height="30" as="geometry" />
        </mxCell>
        <mxCell id="Ihrhc7VY8HwhMpw8fRXH-93" value="RFU" style="rounded=0;whiteSpace=wrap;html=1;" vertex="1" parent="1">
          <mxGeometry x="700" y="-810" width="60" height="30" as="geometry" />
        </mxCell>
        <mxCell id="Ihrhc7VY8HwhMpw8fRXH-94" value="-" style="rounded=0;whiteSpace=wrap;html=1;" vertex="1" parent="1">
          <mxGeometry x="760" y="-780" width="60" height="30" as="geometry" />
        </mxCell>
        <mxCell id="Ihrhc7VY8HwhMpw8fRXH-95" value="-" style="rounded=0;whiteSpace=wrap;html=1;" vertex="1" parent="1">
          <mxGeometry x="700" y="-780" width="60" height="30" as="geometry" />
        </mxCell>
        <mxCell id="Ihrhc7VY8HwhMpw8fRXH-96" value="RFU" style="rounded=0;whiteSpace=wrap;html=1;" vertex="1" parent="1">
          <mxGeometry x="580" y="-810" width="60" height="30" as="geometry" />
        </mxCell>
        <mxCell id="Ihrhc7VY8HwhMpw8fRXH-97" value="RFU" style="rounded=0;whiteSpace=wrap;html=1;" vertex="1" parent="1">
          <mxGeometry x="640" y="-810" width="60" height="30" as="geometry" />
        </mxCell>
        <mxCell id="Ihrhc7VY8HwhMpw8fRXH-98" value="-" style="rounded=0;whiteSpace=wrap;html=1;" vertex="1" parent="1">
          <mxGeometry x="580" y="-780" width="60" height="30" as="geometry" />
        </mxCell>
        <mxCell id="Ihrhc7VY8HwhMpw8fRXH-99" value="-" style="rounded=0;whiteSpace=wrap;html=1;" vertex="1" parent="1">
          <mxGeometry x="640" y="-780" width="60" height="30" as="geometry" />
        </mxCell>
        <mxCell id="Ihrhc7VY8HwhMpw8fRXH-100" value="RFU" style="rounded=0;whiteSpace=wrap;html=1;" vertex="1" parent="1">
          <mxGeometry x="40" y="-564" width="60" height="30" as="geometry" />
        </mxCell>
        <mxCell id="Ihrhc7VY8HwhMpw8fRXH-101" value="&lt;span style=&quot;color: rgb(0, 0, 0); font-family: Helvetica; font-size: 12px; font-style: normal; font-variant-ligatures: normal; font-variant-caps: normal; font-weight: 400; letter-spacing: normal; orphans: 2; text-align: center; text-indent: 0px; text-transform: none; widows: 2; word-spacing: 0px; -webkit-text-stroke-width: 0px; background-color: rgb(251, 251, 251); text-decoration-thickness: initial; text-decoration-style: initial; text-decoration-color: initial; float: none; display: inline !important;&quot;&gt;-&lt;/span&gt;" style="rounded=0;whiteSpace=wrap;html=1;" vertex="1" parent="1">
          <mxGeometry x="40" y="-534" width="60" height="30" as="geometry" />
        </mxCell>
        <mxCell id="Ihrhc7VY8HwhMpw8fRXH-102" value="31" style="rounded=0;whiteSpace=wrap;html=1;fillColor=#f5f5f5;fontColor=#333333;strokeColor=#666666;" vertex="1" parent="1">
          <mxGeometry x="40" y="-584" width="60" height="20" as="geometry" />
        </mxCell>
        <mxCell id="Ihrhc7VY8HwhMpw8fRXH-103" value="RFU" style="rounded=0;whiteSpace=wrap;html=1;" vertex="1" parent="1">
          <mxGeometry x="100" y="-564" width="60" height="30" as="geometry" />
        </mxCell>
        <mxCell id="Ihrhc7VY8HwhMpw8fRXH-104" value="-" style="rounded=0;whiteSpace=wrap;html=1;" vertex="1" parent="1">
          <mxGeometry x="100" y="-534" width="60" height="30" as="geometry" />
        </mxCell>
        <mxCell id="Ihrhc7VY8HwhMpw8fRXH-105" value="30" style="rounded=0;whiteSpace=wrap;html=1;fillColor=#f5f5f5;fontColor=#333333;strokeColor=#666666;" vertex="1" parent="1">
          <mxGeometry x="100" y="-584" width="60" height="20" as="geometry" />
        </mxCell>
        <mxCell id="Ihrhc7VY8HwhMpw8fRXH-106" value="RFU" style="rounded=0;whiteSpace=wrap;html=1;" vertex="1" parent="1">
          <mxGeometry x="160" y="-564" width="60" height="30" as="geometry" />
        </mxCell>
        <mxCell id="Ihrhc7VY8HwhMpw8fRXH-107" value="-" style="rounded=0;whiteSpace=wrap;html=1;" vertex="1" parent="1">
          <mxGeometry x="160" y="-534" width="60" height="30" as="geometry" />
        </mxCell>
        <mxCell id="Ihrhc7VY8HwhMpw8fRXH-108" value="29" style="rounded=0;whiteSpace=wrap;html=1;fillColor=#f5f5f5;fontColor=#333333;strokeColor=#666666;" vertex="1" parent="1">
          <mxGeometry x="160" y="-584" width="60" height="20" as="geometry" />
        </mxCell>
        <mxCell id="Ihrhc7VY8HwhMpw8fRXH-109" value="RFU" style="rounded=0;whiteSpace=wrap;html=1;" vertex="1" parent="1">
          <mxGeometry x="220" y="-564" width="60" height="30" as="geometry" />
        </mxCell>
        <mxCell id="Ihrhc7VY8HwhMpw8fRXH-110" value="-" style="rounded=0;whiteSpace=wrap;html=1;" vertex="1" parent="1">
          <mxGeometry x="220" y="-534" width="60" height="30" as="geometry" />
        </mxCell>
        <mxCell id="Ihrhc7VY8HwhMpw8fRXH-111" value="28" style="rounded=0;whiteSpace=wrap;html=1;fillColor=#f5f5f5;fontColor=#333333;strokeColor=#666666;" vertex="1" parent="1">
          <mxGeometry x="220" y="-584" width="60" height="20" as="geometry" />
        </mxCell>
        <mxCell id="Ihrhc7VY8HwhMpw8fRXH-112" value="RFU" style="rounded=0;whiteSpace=wrap;html=1;" vertex="1" parent="1">
          <mxGeometry x="280" y="-564" width="60" height="30" as="geometry" />
        </mxCell>
        <mxCell id="Ihrhc7VY8HwhMpw8fRXH-113" value="-" style="rounded=0;whiteSpace=wrap;html=1;" vertex="1" parent="1">
          <mxGeometry x="280" y="-534" width="60" height="30" as="geometry" />
        </mxCell>
        <mxCell id="Ihrhc7VY8HwhMpw8fRXH-114" value="27" style="rounded=0;whiteSpace=wrap;html=1;fillColor=#f5f5f5;fontColor=#333333;strokeColor=#666666;" vertex="1" parent="1">
          <mxGeometry x="280" y="-584" width="60" height="20" as="geometry" />
        </mxCell>
        <mxCell id="Ihrhc7VY8HwhMpw8fRXH-115" value="RFU" style="rounded=0;whiteSpace=wrap;html=1;" vertex="1" parent="1">
          <mxGeometry x="340" y="-564" width="60" height="30" as="geometry" />
        </mxCell>
        <mxCell id="Ihrhc7VY8HwhMpw8fRXH-116" value="&lt;span style=&quot;color: rgb(0, 0, 0); font-family: Helvetica; font-size: 12px; font-style: normal; font-variant-ligatures: normal; font-variant-caps: normal; font-weight: 400; letter-spacing: normal; orphans: 2; text-align: center; text-indent: 0px; text-transform: none; widows: 2; word-spacing: 0px; -webkit-text-stroke-width: 0px; background-color: rgb(251, 251, 251); text-decoration-thickness: initial; text-decoration-style: initial; text-decoration-color: initial; float: none; display: inline !important;&quot;&gt;-&lt;/span&gt;" style="rounded=0;whiteSpace=wrap;html=1;" vertex="1" parent="1">
          <mxGeometry x="340" y="-534" width="60" height="30" as="geometry" />
        </mxCell>
        <mxCell id="Ihrhc7VY8HwhMpw8fRXH-117" value="26" style="rounded=0;whiteSpace=wrap;html=1;fillColor=#f5f5f5;fontColor=#333333;strokeColor=#666666;" vertex="1" parent="1">
          <mxGeometry x="340" y="-584" width="60" height="20" as="geometry" />
        </mxCell>
        <mxCell id="Ihrhc7VY8HwhMpw8fRXH-118" value="&lt;span style=&quot;color: rgb(0, 0, 0); font-family: Helvetica; font-size: 12px; font-style: normal; font-variant-ligatures: normal; font-variant-caps: normal; font-weight: 400; letter-spacing: normal; orphans: 2; text-align: center; text-indent: 0px; text-transform: none; widows: 2; word-spacing: 0px; -webkit-text-stroke-width: 0px; background-color: rgb(251, 251, 251); text-decoration-thickness: initial; text-decoration-style: initial; text-decoration-color: initial; float: none; display: inline !important;&quot;&gt;RFU&lt;/span&gt;" style="rounded=0;whiteSpace=wrap;html=1;" vertex="1" parent="1">
          <mxGeometry x="400" y="-564" width="60" height="30" as="geometry" />
        </mxCell>
        <mxCell id="Ihrhc7VY8HwhMpw8fRXH-119" value="&lt;span style=&quot;color: rgb(0, 0, 0); font-family: Helvetica; font-size: 12px; font-style: normal; font-variant-ligatures: normal; font-variant-caps: normal; font-weight: 400; letter-spacing: normal; orphans: 2; text-align: center; text-indent: 0px; text-transform: none; widows: 2; word-spacing: 0px; -webkit-text-stroke-width: 0px; background-color: rgb(251, 251, 251); text-decoration-thickness: initial; text-decoration-style: initial; text-decoration-color: initial; float: none; display: inline !important;&quot;&gt;-&lt;/span&gt;" style="rounded=0;whiteSpace=wrap;html=1;" vertex="1" parent="1">
          <mxGeometry x="400" y="-534" width="60" height="30" as="geometry" />
        </mxCell>
        <mxCell id="Ihrhc7VY8HwhMpw8fRXH-120" value="25" style="rounded=0;whiteSpace=wrap;html=1;fillColor=#f5f5f5;fontColor=#333333;strokeColor=#666666;" vertex="1" parent="1">
          <mxGeometry x="400" y="-584" width="60" height="20" as="geometry" />
        </mxCell>
        <mxCell id="Ihrhc7VY8HwhMpw8fRXH-121" value="RFU" style="rounded=0;whiteSpace=wrap;html=1;" vertex="1" parent="1">
          <mxGeometry x="460" y="-564" width="60" height="30" as="geometry" />
        </mxCell>
        <mxCell id="Ihrhc7VY8HwhMpw8fRXH-122" value="&lt;span style=&quot;color: rgb(0, 0, 0); font-family: Helvetica; font-size: 12px; font-style: normal; font-variant-ligatures: normal; font-variant-caps: normal; font-weight: 400; letter-spacing: normal; orphans: 2; text-align: center; text-indent: 0px; text-transform: none; widows: 2; word-spacing: 0px; -webkit-text-stroke-width: 0px; background-color: rgb(251, 251, 251); text-decoration-thickness: initial; text-decoration-style: initial; text-decoration-color: initial; float: none; display: inline !important;&quot;&gt;-&lt;/span&gt;" style="rounded=0;whiteSpace=wrap;html=1;" vertex="1" parent="1">
          <mxGeometry x="460" y="-534" width="60" height="30" as="geometry" />
        </mxCell>
        <mxCell id="Ihrhc7VY8HwhMpw8fRXH-123" value="24" style="rounded=0;whiteSpace=wrap;html=1;fillColor=#f5f5f5;fontColor=#333333;strokeColor=#666666;" vertex="1" parent="1">
          <mxGeometry x="460" y="-584" width="60" height="20" as="geometry" />
        </mxCell>
        <mxCell id="Ihrhc7VY8HwhMpw8fRXH-124" value="RFU" style="rounded=0;whiteSpace=wrap;html=1;" vertex="1" parent="1">
          <mxGeometry x="520" y="-564" width="60" height="30" as="geometry" />
        </mxCell>
        <mxCell id="Ihrhc7VY8HwhMpw8fRXH-125" value="&lt;span style=&quot;color: rgb(0, 0, 0); font-family: Helvetica; font-size: 12px; font-style: normal; font-variant-ligatures: normal; font-variant-caps: normal; font-weight: 400; letter-spacing: normal; orphans: 2; text-align: center; text-indent: 0px; text-transform: none; widows: 2; word-spacing: 0px; -webkit-text-stroke-width: 0px; background-color: rgb(251, 251, 251); text-decoration-thickness: initial; text-decoration-style: initial; text-decoration-color: initial; float: none; display: inline !important;&quot;&gt;-&lt;/span&gt;" style="rounded=0;whiteSpace=wrap;html=1;" vertex="1" parent="1">
          <mxGeometry x="520" y="-534" width="60" height="30" as="geometry" />
        </mxCell>
        <mxCell id="Ihrhc7VY8HwhMpw8fRXH-126" value="23" style="rounded=0;whiteSpace=wrap;html=1;fillColor=#f5f5f5;fontColor=#333333;strokeColor=#666666;" vertex="1" parent="1">
          <mxGeometry x="520" y="-584" width="60" height="20" as="geometry" />
        </mxCell>
        <mxCell id="Ihrhc7VY8HwhMpw8fRXH-127" value="RFU" style="rounded=0;whiteSpace=wrap;html=1;" vertex="1" parent="1">
          <mxGeometry x="580" y="-564" width="60" height="30" as="geometry" />
        </mxCell>
        <mxCell id="Ihrhc7VY8HwhMpw8fRXH-128" value="&lt;span style=&quot;color: rgb(0, 0, 0); font-family: Helvetica; font-size: 12px; font-style: normal; font-variant-ligatures: normal; font-variant-caps: normal; font-weight: 400; letter-spacing: normal; orphans: 2; text-align: center; text-indent: 0px; text-transform: none; widows: 2; word-spacing: 0px; -webkit-text-stroke-width: 0px; background-color: rgb(251, 251, 251); text-decoration-thickness: initial; text-decoration-style: initial; text-decoration-color: initial; float: none; display: inline !important;&quot;&gt;-&lt;/span&gt;" style="rounded=0;whiteSpace=wrap;html=1;" vertex="1" parent="1">
          <mxGeometry x="580" y="-534" width="60" height="30" as="geometry" />
        </mxCell>
        <mxCell id="Ihrhc7VY8HwhMpw8fRXH-129" value="22" style="rounded=0;whiteSpace=wrap;html=1;fillColor=#f5f5f5;fontColor=#333333;strokeColor=#666666;" vertex="1" parent="1">
          <mxGeometry x="580" y="-584" width="60" height="20" as="geometry" />
        </mxCell>
        <mxCell id="Ihrhc7VY8HwhMpw8fRXH-130" value="RFU" style="rounded=0;whiteSpace=wrap;html=1;" vertex="1" parent="1">
          <mxGeometry x="640" y="-564" width="60" height="30" as="geometry" />
        </mxCell>
        <mxCell id="Ihrhc7VY8HwhMpw8fRXH-131" value="&lt;span style=&quot;color: rgb(0, 0, 0); font-family: Helvetica; font-size: 12px; font-style: normal; font-variant-ligatures: normal; font-variant-caps: normal; font-weight: 400; letter-spacing: normal; orphans: 2; text-align: center; text-indent: 0px; text-transform: none; widows: 2; word-spacing: 0px; -webkit-text-stroke-width: 0px; background-color: rgb(251, 251, 251); text-decoration-thickness: initial; text-decoration-style: initial; text-decoration-color: initial; float: none; display: inline !important;&quot;&gt;-&lt;/span&gt;" style="rounded=0;whiteSpace=wrap;html=1;" vertex="1" parent="1">
          <mxGeometry x="640" y="-534" width="60" height="30" as="geometry" />
        </mxCell>
        <mxCell id="Ihrhc7VY8HwhMpw8fRXH-132" value="21" style="rounded=0;whiteSpace=wrap;html=1;fillColor=#f5f5f5;fontColor=#333333;strokeColor=#666666;" vertex="1" parent="1">
          <mxGeometry x="640" y="-584" width="60" height="20" as="geometry" />
        </mxCell>
        <mxCell id="Ihrhc7VY8HwhMpw8fRXH-133" value="RFU" style="rounded=0;whiteSpace=wrap;html=1;" vertex="1" parent="1">
          <mxGeometry x="700" y="-564" width="60" height="30" as="geometry" />
        </mxCell>
        <mxCell id="Ihrhc7VY8HwhMpw8fRXH-134" value="&lt;span style=&quot;color: rgb(0, 0, 0); font-family: Helvetica; font-size: 12px; font-style: normal; font-variant-ligatures: normal; font-variant-caps: normal; font-weight: 400; letter-spacing: normal; orphans: 2; text-align: center; text-indent: 0px; text-transform: none; widows: 2; word-spacing: 0px; -webkit-text-stroke-width: 0px; background-color: rgb(251, 251, 251); text-decoration-thickness: initial; text-decoration-style: initial; text-decoration-color: initial; float: none; display: inline !important;&quot;&gt;-&lt;/span&gt;" style="rounded=0;whiteSpace=wrap;html=1;" vertex="1" parent="1">
          <mxGeometry x="700" y="-534" width="60" height="30" as="geometry" />
        </mxCell>
        <mxCell id="Ihrhc7VY8HwhMpw8fRXH-135" value="20" style="rounded=0;whiteSpace=wrap;html=1;fillColor=#f5f5f5;fontColor=#333333;strokeColor=#666666;" vertex="1" parent="1">
          <mxGeometry x="700" y="-584" width="60" height="20" as="geometry" />
        </mxCell>
        <mxCell id="Ihrhc7VY8HwhMpw8fRXH-136" value="RFU" style="rounded=0;whiteSpace=wrap;html=1;" vertex="1" parent="1">
          <mxGeometry x="760" y="-564" width="60" height="30" as="geometry" />
        </mxCell>
        <mxCell id="Ihrhc7VY8HwhMpw8fRXH-137" value="&lt;span style=&quot;color: rgb(0, 0, 0); font-family: Helvetica; font-size: 12px; font-style: normal; font-variant-ligatures: normal; font-variant-caps: normal; font-weight: 400; letter-spacing: normal; orphans: 2; text-align: center; text-indent: 0px; text-transform: none; widows: 2; word-spacing: 0px; -webkit-text-stroke-width: 0px; background-color: rgb(251, 251, 251); text-decoration-thickness: initial; text-decoration-style: initial; text-decoration-color: initial; float: none; display: inline !important;&quot;&gt;-&lt;/span&gt;" style="rounded=0;whiteSpace=wrap;html=1;" vertex="1" parent="1">
          <mxGeometry x="760" y="-534" width="60" height="30" as="geometry" />
        </mxCell>
        <mxCell id="Ihrhc7VY8HwhMpw8fRXH-138" value="19" style="rounded=0;whiteSpace=wrap;html=1;fillColor=#f5f5f5;fontColor=#333333;strokeColor=#666666;" vertex="1" parent="1">
          <mxGeometry x="760" y="-584" width="60" height="20" as="geometry" />
        </mxCell>
        <mxCell id="Ihrhc7VY8HwhMpw8fRXH-139" value="RFU" style="rounded=0;whiteSpace=wrap;html=1;" vertex="1" parent="1">
          <mxGeometry x="820" y="-564" width="60" height="30" as="geometry" />
        </mxCell>
        <mxCell id="Ihrhc7VY8HwhMpw8fRXH-140" value="&lt;span style=&quot;color: rgb(0, 0, 0); font-family: Helvetica; font-size: 12px; font-style: normal; font-variant-ligatures: normal; font-variant-caps: normal; font-weight: 400; letter-spacing: normal; orphans: 2; text-align: center; text-indent: 0px; text-transform: none; widows: 2; word-spacing: 0px; -webkit-text-stroke-width: 0px; background-color: rgb(251, 251, 251); text-decoration-thickness: initial; text-decoration-style: initial; text-decoration-color: initial; float: none; display: inline !important;&quot;&gt;-&lt;/span&gt;" style="rounded=0;whiteSpace=wrap;html=1;" vertex="1" parent="1">
          <mxGeometry x="820" y="-534" width="60" height="30" as="geometry" />
        </mxCell>
        <mxCell id="Ihrhc7VY8HwhMpw8fRXH-141" value="18" style="rounded=0;whiteSpace=wrap;html=1;fillColor=#f5f5f5;fontColor=#333333;strokeColor=#666666;" vertex="1" parent="1">
          <mxGeometry x="820" y="-584" width="60" height="20" as="geometry" />
        </mxCell>
        <mxCell id="Ihrhc7VY8HwhMpw8fRXH-142" value="RFU" style="rounded=0;whiteSpace=wrap;html=1;" vertex="1" parent="1">
          <mxGeometry x="880" y="-564" width="60" height="30" as="geometry" />
        </mxCell>
        <mxCell id="Ihrhc7VY8HwhMpw8fRXH-143" value="&lt;span style=&quot;color: rgb(0, 0, 0); font-family: Helvetica; font-size: 12px; font-style: normal; font-variant-ligatures: normal; font-variant-caps: normal; font-weight: 400; letter-spacing: normal; orphans: 2; text-align: center; text-indent: 0px; text-transform: none; widows: 2; word-spacing: 0px; -webkit-text-stroke-width: 0px; background-color: rgb(251, 251, 251); text-decoration-thickness: initial; text-decoration-style: initial; text-decoration-color: initial; float: none; display: inline !important;&quot;&gt;-&lt;/span&gt;" style="rounded=0;whiteSpace=wrap;html=1;" vertex="1" parent="1">
          <mxGeometry x="880" y="-534" width="60" height="30" as="geometry" />
        </mxCell>
        <mxCell id="Ihrhc7VY8HwhMpw8fRXH-144" value="17" style="rounded=0;whiteSpace=wrap;html=1;fillColor=#f5f5f5;fontColor=#333333;strokeColor=#666666;" vertex="1" parent="1">
          <mxGeometry x="880" y="-584" width="60" height="20" as="geometry" />
        </mxCell>
        <mxCell id="Ihrhc7VY8HwhMpw8fRXH-145" value="RFU" style="rounded=0;whiteSpace=wrap;html=1;" vertex="1" parent="1">
          <mxGeometry x="940" y="-564" width="60" height="30" as="geometry" />
        </mxCell>
        <mxCell id="Ihrhc7VY8HwhMpw8fRXH-146" value="&lt;span style=&quot;color: rgb(0, 0, 0); font-family: Helvetica; font-size: 12px; font-style: normal; font-variant-ligatures: normal; font-variant-caps: normal; font-weight: 400; letter-spacing: normal; orphans: 2; text-align: center; text-indent: 0px; text-transform: none; widows: 2; word-spacing: 0px; -webkit-text-stroke-width: 0px; background-color: rgb(251, 251, 251); text-decoration-thickness: initial; text-decoration-style: initial; text-decoration-color: initial; float: none; display: inline !important;&quot;&gt;-&lt;/span&gt;" style="rounded=0;whiteSpace=wrap;html=1;" vertex="1" parent="1">
          <mxGeometry x="940" y="-534" width="60" height="30" as="geometry" />
        </mxCell>
        <mxCell id="Ihrhc7VY8HwhMpw8fRXH-147" value="16" style="rounded=0;whiteSpace=wrap;html=1;fillColor=#f5f5f5;fontColor=#333333;strokeColor=#666666;" vertex="1" parent="1">
          <mxGeometry x="940" y="-584" width="60" height="20" as="geometry" />
        </mxCell>
        <mxCell id="Ihrhc7VY8HwhMpw8fRXH-148" value="RFU" style="rounded=0;whiteSpace=wrap;html=1;" vertex="1" parent="1">
          <mxGeometry x="40" y="-470" width="60" height="30" as="geometry" />
        </mxCell>
        <mxCell id="Ihrhc7VY8HwhMpw8fRXH-149" value="-" style="rounded=0;whiteSpace=wrap;html=1;" vertex="1" parent="1">
          <mxGeometry x="40" y="-440" width="60" height="30" as="geometry" />
        </mxCell>
        <mxCell id="Ihrhc7VY8HwhMpw8fRXH-150" value="15" style="rounded=0;whiteSpace=wrap;html=1;fillColor=#f5f5f5;fontColor=#333333;strokeColor=#666666;" vertex="1" parent="1">
          <mxGeometry x="40" y="-490" width="60" height="20" as="geometry" />
        </mxCell>
        <mxCell id="Ihrhc7VY8HwhMpw8fRXH-151" value="RFU" style="rounded=0;whiteSpace=wrap;html=1;" vertex="1" parent="1">
          <mxGeometry x="100" y="-470" width="60" height="30" as="geometry" />
        </mxCell>
        <mxCell id="Ihrhc7VY8HwhMpw8fRXH-152" value="-" style="rounded=0;whiteSpace=wrap;html=1;" vertex="1" parent="1">
          <mxGeometry x="100" y="-440" width="60" height="30" as="geometry" />
        </mxCell>
        <mxCell id="Ihrhc7VY8HwhMpw8fRXH-153" value="14" style="rounded=0;whiteSpace=wrap;html=1;fillColor=#f5f5f5;fontColor=#333333;strokeColor=#666666;" vertex="1" parent="1">
          <mxGeometry x="100" y="-490" width="60" height="20" as="geometry" />
        </mxCell>
        <mxCell id="Ihrhc7VY8HwhMpw8fRXH-154" value="RFU" style="rounded=0;whiteSpace=wrap;html=1;" vertex="1" parent="1">
          <mxGeometry x="160" y="-470" width="60" height="30" as="geometry" />
        </mxCell>
        <mxCell id="Ihrhc7VY8HwhMpw8fRXH-155" value="-" style="rounded=0;whiteSpace=wrap;html=1;" vertex="1" parent="1">
          <mxGeometry x="160" y="-440" width="60" height="30" as="geometry" />
        </mxCell>
        <mxCell id="Ihrhc7VY8HwhMpw8fRXH-156" value="13" style="rounded=0;whiteSpace=wrap;html=1;fillColor=#f5f5f5;fontColor=#333333;strokeColor=#666666;" vertex="1" parent="1">
          <mxGeometry x="160" y="-490" width="60" height="20" as="geometry" />
        </mxCell>
        <mxCell id="Ihrhc7VY8HwhMpw8fRXH-157" value="RFU" style="rounded=0;whiteSpace=wrap;html=1;" vertex="1" parent="1">
          <mxGeometry x="220" y="-470" width="60" height="30" as="geometry" />
        </mxCell>
        <mxCell id="Ihrhc7VY8HwhMpw8fRXH-158" value="-" style="rounded=0;whiteSpace=wrap;html=1;" vertex="1" parent="1">
          <mxGeometry x="220" y="-440" width="60" height="30" as="geometry" />
        </mxCell>
        <mxCell id="Ihrhc7VY8HwhMpw8fRXH-159" value="12" style="rounded=0;whiteSpace=wrap;html=1;fillColor=#f5f5f5;fontColor=#333333;strokeColor=#666666;" vertex="1" parent="1">
          <mxGeometry x="220" y="-490" width="60" height="20" as="geometry" />
        </mxCell>
        <mxCell id="Ihrhc7VY8HwhMpw8fRXH-160" value="RFU" style="rounded=0;whiteSpace=wrap;html=1;" vertex="1" parent="1">
          <mxGeometry x="280" y="-470" width="60" height="30" as="geometry" />
        </mxCell>
        <mxCell id="Ihrhc7VY8HwhMpw8fRXH-161" value="-" style="rounded=0;whiteSpace=wrap;html=1;" vertex="1" parent="1">
          <mxGeometry x="280" y="-440" width="60" height="30" as="geometry" />
        </mxCell>
        <mxCell id="Ihrhc7VY8HwhMpw8fRXH-162" value="11" style="rounded=0;whiteSpace=wrap;html=1;fillColor=#f5f5f5;fontColor=#333333;strokeColor=#666666;" vertex="1" parent="1">
          <mxGeometry x="280" y="-490" width="60" height="20" as="geometry" />
        </mxCell>
        <mxCell id="Ihrhc7VY8HwhMpw8fRXH-163" value="RFU" style="rounded=0;whiteSpace=wrap;html=1;" vertex="1" parent="1">
          <mxGeometry x="340" y="-470" width="60" height="30" as="geometry" />
        </mxCell>
        <mxCell id="Ihrhc7VY8HwhMpw8fRXH-164" value="-" style="rounded=0;whiteSpace=wrap;html=1;" vertex="1" parent="1">
          <mxGeometry x="340" y="-440" width="60" height="30" as="geometry" />
        </mxCell>
        <mxCell id="Ihrhc7VY8HwhMpw8fRXH-165" value="10" style="rounded=0;whiteSpace=wrap;html=1;fillColor=#f5f5f5;fontColor=#333333;strokeColor=#666666;" vertex="1" parent="1">
          <mxGeometry x="340" y="-490" width="60" height="20" as="geometry" />
        </mxCell>
        <mxCell id="Ihrhc7VY8HwhMpw8fRXH-166" value="RFU" style="rounded=0;whiteSpace=wrap;html=1;" vertex="1" parent="1">
          <mxGeometry x="400" y="-470" width="60" height="30" as="geometry" />
        </mxCell>
        <mxCell id="Ihrhc7VY8HwhMpw8fRXH-167" value="-" style="rounded=0;whiteSpace=wrap;html=1;" vertex="1" parent="1">
          <mxGeometry x="400" y="-440" width="60" height="30" as="geometry" />
        </mxCell>
        <mxCell id="Ihrhc7VY8HwhMpw8fRXH-168" value="9" style="rounded=0;whiteSpace=wrap;html=1;fillColor=#f5f5f5;fontColor=#333333;strokeColor=#666666;" vertex="1" parent="1">
          <mxGeometry x="400" y="-490" width="60" height="20" as="geometry" />
        </mxCell>
        <mxCell id="Ihrhc7VY8HwhMpw8fRXH-169" value="RFU" style="rounded=0;whiteSpace=wrap;html=1;" vertex="1" parent="1">
          <mxGeometry x="460" y="-470" width="60" height="30" as="geometry" />
        </mxCell>
        <mxCell id="Ihrhc7VY8HwhMpw8fRXH-170" value="-" style="rounded=0;whiteSpace=wrap;html=1;" vertex="1" parent="1">
          <mxGeometry x="460" y="-440" width="60" height="30" as="geometry" />
        </mxCell>
        <mxCell id="Ihrhc7VY8HwhMpw8fRXH-171" value="8" style="rounded=0;whiteSpace=wrap;html=1;fillColor=#f5f5f5;fontColor=#333333;strokeColor=#666666;" vertex="1" parent="1">
          <mxGeometry x="460" y="-490" width="60" height="20" as="geometry" />
        </mxCell>
        <mxCell id="Ihrhc7VY8HwhMpw8fRXH-172" value="&lt;b style=&quot;color: rgb(0, 0, 0); font-family: Helvetica; font-size: 12px; font-style: normal; font-variant-ligatures: normal; font-variant-caps: normal; letter-spacing: normal; orphans: 2; text-align: center; text-indent: 0px; text-transform: none; widows: 2; word-spacing: 0px; -webkit-text-stroke-width: 0px; white-space: normal; background-color: rgb(251, 251, 251); text-decoration-thickness: initial; text-decoration-style: initial; text-decoration-color: initial;&quot;&gt;R&lt;/b&gt;" style="rounded=0;whiteSpace=wrap;html=1;" vertex="1" parent="1">
          <mxGeometry x="520" y="-440" width="480" height="30" as="geometry" />
        </mxCell>
        <mxCell id="Ihrhc7VY8HwhMpw8fRXH-173" value="7" style="rounded=0;whiteSpace=wrap;html=1;fillColor=#f5f5f5;fontColor=#333333;strokeColor=#666666;" vertex="1" parent="1">
          <mxGeometry x="520" y="-490" width="60" height="20" as="geometry" />
        </mxCell>
        <mxCell id="Ihrhc7VY8HwhMpw8fRXH-174" value="6" style="rounded=0;whiteSpace=wrap;html=1;fillColor=#f5f5f5;fontColor=#333333;strokeColor=#666666;" vertex="1" parent="1">
          <mxGeometry x="580" y="-490" width="60" height="20" as="geometry" />
        </mxCell>
        <mxCell id="Ihrhc7VY8HwhMpw8fRXH-175" value="5" style="rounded=0;whiteSpace=wrap;html=1;fillColor=#f5f5f5;fontColor=#333333;strokeColor=#666666;" vertex="1" parent="1">
          <mxGeometry x="640" y="-490" width="60" height="20" as="geometry" />
        </mxCell>
        <mxCell id="Ihrhc7VY8HwhMpw8fRXH-176" value="4" style="rounded=0;whiteSpace=wrap;html=1;fillColor=#f5f5f5;fontColor=#333333;strokeColor=#666666;" vertex="1" parent="1">
          <mxGeometry x="700" y="-490" width="60" height="20" as="geometry" />
        </mxCell>
        <mxCell id="Ihrhc7VY8HwhMpw8fRXH-177" value="3" style="rounded=0;whiteSpace=wrap;html=1;fillColor=#f5f5f5;fontColor=#333333;strokeColor=#666666;" vertex="1" parent="1">
          <mxGeometry x="760" y="-490" width="60" height="20" as="geometry" />
        </mxCell>
        <mxCell id="Ihrhc7VY8HwhMpw8fRXH-178" value="2" style="rounded=0;whiteSpace=wrap;html=1;fillColor=#f5f5f5;fontColor=#333333;strokeColor=#666666;" vertex="1" parent="1">
          <mxGeometry x="820" y="-490" width="60" height="20" as="geometry" />
        </mxCell>
        <mxCell id="Ihrhc7VY8HwhMpw8fRXH-179" value="1" style="rounded=0;whiteSpace=wrap;html=1;fillColor=#f5f5f5;fontColor=#333333;strokeColor=#666666;" vertex="1" parent="1">
          <mxGeometry x="880" y="-490" width="60" height="20" as="geometry" />
        </mxCell>
        <mxCell id="Ihrhc7VY8HwhMpw8fRXH-180" value="0" style="rounded=0;whiteSpace=wrap;html=1;fillColor=#f5f5f5;fontColor=#333333;strokeColor=#666666;" vertex="1" parent="1">
          <mxGeometry x="940" y="-490" width="60" height="20" as="geometry" />
        </mxCell>
        <mxCell id="Ihrhc7VY8HwhMpw8fRXH-181" value="&lt;b&gt;PS2 : 0x01&lt;/b&gt;" style="text;html=1;align=left;verticalAlign=middle;resizable=0;points=[];autosize=1;strokeColor=none;fillColor=none;" vertex="1" parent="1">
          <mxGeometry x="40" y="-620" width="80" height="30" as="geometry" />
        </mxCell>
        <mxCell id="Ihrhc7VY8HwhMpw8fRXH-182" value="&lt;b&gt;Bit 0-7 :&amp;nbsp;ps2_key_out&lt;/b&gt;&lt;div&gt;&lt;span style=&quot;font-weight: bold; white-space: pre;&quot;&gt;&#x9;&lt;/span&gt;Key received by the PS2 keyboard controller&lt;br&gt;&lt;/div&gt;" style="text;html=1;align=left;verticalAlign=middle;resizable=0;points=[];autosize=1;strokeColor=none;fillColor=none;rotation=0;" vertex="1" parent="1">
          <mxGeometry x="40" y="-380" width="290" height="40" as="geometry" />
        </mxCell>
        <mxCell id="Ihrhc7VY8HwhMpw8fRXH-183" value="&lt;b style=&quot;color: rgb(0, 0, 0); font-family: Helvetica; font-size: 12px; font-style: normal; font-variant-ligatures: normal; font-variant-caps: normal; letter-spacing: normal; orphans: 2; text-align: center; text-indent: 0px; text-transform: none; widows: 2; word-spacing: 0px; -webkit-text-stroke-width: 0px; white-space: normal; text-decoration-thickness: initial; text-decoration-style: initial; text-decoration-color: initial; background-color: rgb(251, 251, 251);&quot;&gt;ps2_key_out&lt;/b&gt;" style="rounded=0;whiteSpace=wrap;html=1;" vertex="1" parent="1">
          <mxGeometry x="520" y="-470" width="480" height="30" as="geometry" />
        </mxCell>
      </root>
    </mxGraphModel>
  </diagram>
  <diagram id="zh2Ixb7pl4bArNjqQsTD" name="State Machine">
    <mxGraphModel dx="1372" dy="843" grid="1" gridSize="10" guides="1" tooltips="1" connect="1" arrows="1" fold="1" page="1" pageScale="1" pageWidth="850" pageHeight="1100" math="0" shadow="0">
      <root>
        <mxCell id="0" />
        <mxCell id="1" parent="0" />
        <mxCell id="bhUMD4ZL8wbwsRwpmQDl-1" style="edgeStyle=orthogonalEdgeStyle;rounded=0;orthogonalLoop=1;jettySize=auto;html=1;exitX=0.5;exitY=1;exitDx=0;exitDy=0;entryX=0.5;entryY=0;entryDx=0;entryDy=0;" edge="1" parent="1" source="bhUMD4ZL8wbwsRwpmQDl-2" target="bhUMD4ZL8wbwsRwpmQDl-10">
          <mxGeometry relative="1" as="geometry" />
        </mxCell>
        <mxCell id="bhUMD4ZL8wbwsRwpmQDl-2" value="Start" style="ellipse;whiteSpace=wrap;html=1;" vertex="1" parent="1">
          <mxGeometry x="280" y="190" width="90" height="60" as="geometry" />
        </mxCell>
        <mxCell id="bhUMD4ZL8wbwsRwpmQDl-3" style="edgeStyle=orthogonalEdgeStyle;rounded=0;orthogonalLoop=1;jettySize=auto;html=1;exitX=0.5;exitY=1;exitDx=0;exitDy=0;entryX=0;entryY=0.5;entryDx=0;entryDy=0;" edge="1" parent="1" source="bhUMD4ZL8wbwsRwpmQDl-4" target="bhUMD4ZL8wbwsRwpmQDl-10">
          <mxGeometry relative="1" as="geometry">
            <Array as="points">
              <mxPoint x="325" y="670" />
              <mxPoint x="180" y="670" />
              <mxPoint x="180" y="320" />
            </Array>
          </mxGeometry>
        </mxCell>
        <mxCell id="bhUMD4ZL8wbwsRwpmQDl-4" value="S_CHECK_ERROR" style="ellipse;whiteSpace=wrap;html=1;" vertex="1" parent="1">
          <mxGeometry x="258.75" y="590" width="132.5" height="60" as="geometry" />
        </mxCell>
        <mxCell id="bhUMD4ZL8wbwsRwpmQDl-5" style="edgeStyle=orthogonalEdgeStyle;rounded=0;orthogonalLoop=1;jettySize=auto;html=1;exitX=0.5;exitY=1;exitDx=0;exitDy=0;entryX=0.5;entryY=0;entryDx=0;entryDy=0;" edge="1" parent="1" source="bhUMD4ZL8wbwsRwpmQDl-6" target="bhUMD4ZL8wbwsRwpmQDl-4">
          <mxGeometry relative="1" as="geometry" />
        </mxCell>
        <mxCell id="bhUMD4ZL8wbwsRwpmQDl-6" value="S_RECEIVE" style="ellipse;whiteSpace=wrap;html=1;" vertex="1" parent="1">
          <mxGeometry x="258.75" y="490" width="132.5" height="60" as="geometry" />
        </mxCell>
        <mxCell id="bhUMD4ZL8wbwsRwpmQDl-7" style="edgeStyle=orthogonalEdgeStyle;rounded=0;orthogonalLoop=1;jettySize=auto;html=1;exitX=0.5;exitY=1;exitDx=0;exitDy=0;entryX=0.5;entryY=0;entryDx=0;entryDy=0;" edge="1" parent="1" source="bhUMD4ZL8wbwsRwpmQDl-8" target="bhUMD4ZL8wbwsRwpmQDl-6">
          <mxGeometry relative="1" as="geometry" />
        </mxCell>
        <mxCell id="bhUMD4ZL8wbwsRwpmQDl-8" value="S_IDLE" style="ellipse;whiteSpace=wrap;html=1;" vertex="1" parent="1">
          <mxGeometry x="258.75" y="390" width="132.5" height="60" as="geometry" />
        </mxCell>
        <mxCell id="bhUMD4ZL8wbwsRwpmQDl-9" style="edgeStyle=orthogonalEdgeStyle;rounded=0;orthogonalLoop=1;jettySize=auto;html=1;exitX=0.5;exitY=1;exitDx=0;exitDy=0;entryX=0.5;entryY=0;entryDx=0;entryDy=0;" edge="1" parent="1" source="bhUMD4ZL8wbwsRwpmQDl-10" target="bhUMD4ZL8wbwsRwpmQDl-8">
          <mxGeometry relative="1" as="geometry" />
        </mxCell>
        <mxCell id="bhUMD4ZL8wbwsRwpmQDl-10" value="S_CLEAN" style="ellipse;whiteSpace=wrap;html=1;" vertex="1" parent="1">
          <mxGeometry x="258.75" y="290" width="132.5" height="60" as="geometry" />
        </mxCell>
        <mxCell id="bhUMD4ZL8wbwsRwpmQDl-11" style="edgeStyle=orthogonalEdgeStyle;rounded=0;orthogonalLoop=1;jettySize=auto;html=1;exitX=0;exitY=0;exitDx=0;exitDy=0;entryX=0;entryY=0.5;entryDx=0;entryDy=0;curved=1;" edge="1" parent="1" source="bhUMD4ZL8wbwsRwpmQDl-6" target="bhUMD4ZL8wbwsRwpmQDl-6">
          <mxGeometry relative="1" as="geometry">
            <Array as="points">
              <mxPoint x="278" y="490" />
              <mxPoint x="240" y="490" />
              <mxPoint x="240" y="520" />
            </Array>
          </mxGeometry>
        </mxCell>
        <mxCell id="bhUMD4ZL8wbwsRwpmQDl-12" value="&lt;font style=&quot;font-size: 12px;&quot;&gt;counter &amp;lt; 11&lt;/font&gt;" style="text;html=1;align=center;verticalAlign=middle;whiteSpace=wrap;rounded=0;" vertex="1" parent="1">
          <mxGeometry x="200" y="470" width="70" height="20" as="geometry" />
        </mxCell>
        <mxCell id="bhUMD4ZL8wbwsRwpmQDl-13" value="~PS2D &amp;amp; previous_PSC2 &amp;amp; PS2C" style="text;html=1;align=center;verticalAlign=middle;whiteSpace=wrap;rounded=0;" vertex="1" parent="1">
          <mxGeometry x="350" y="460" width="200" height="30" as="geometry" />
        </mxCell>
        <mxCell id="bhUMD4ZL8wbwsRwpmQDl-14" value="&lt;font style=&quot;font-size: 12px;&quot;&gt;counter == 11&lt;/font&gt;" style="text;html=1;align=center;verticalAlign=middle;whiteSpace=wrap;rounded=0;" vertex="1" parent="1">
          <mxGeometry x="350" y="560" width="80" height="20" as="geometry" />
        </mxCell>
      </root>
    </mxGraphModel>
  </diagram>
</mxfile>
